<?xml version="1.0" standalone="no"?>
<!DOCTYPE svg PUBLIC "-//W3C//DTD SVG 20010904//EN"
 "http://www.w3.org/TR/2001/REC-SVG-20010904/DTD/svg10.dtd">
<svg version="1.0" xmlns="http://www.w3.org/2000/svg"
 width="695.000000pt" height="695.000000pt" viewBox="0 0 695.000000 695.000000"
 preserveAspectRatio="xMidYMid meet">
<metadata>
Created by potrace 1.14, written by Peter Selinger 2001-2017
</metadata>
<g transform="translate(0.000000,695.000000) scale(0.100000,-0.100000)"
fill="#000000" stroke="none">
<path d="M2353 5029 l-1053 -531 0 -1059 c0 -1001 1 -1060 18 -1065 9 -2 485
-239 1057 -526 l1040 -521 650 326 c940 472 1428 715 1448 721 16 5 17 64 17
1065 l0 1060 -1027 517 c-566 284 -1032 523 -1036 531 -4 7 -20 13 -35 13 -15
-1 -487 -232 -1079 -531z m992 424 c-45 -70 -968 -1439 -976 -1448 -6 -6 -187
79 -499 235 l-489 244 987 498 c543 273 989 497 991 498 2 0 -5 -12 -14 -27z
m777 -1002 c350 -537 635 -977 635 -978 -1 -1 -295 62 -652 140 l-650 142 -2
860 c-2 812 -1 859 15 836 9 -13 303 -463 654 -1000z m1348 18 c0 -3 -148
-226 -328 -497 l-328 -491 -595 912 c-327 501 -615 945 -642 985 l-47 73 970
-488 c533 -268 970 -491 970 -494z m-2074 -696 c-4 -5 -966 204 -973 210 -2 3
216 330 484 728 l488 724 3 -829 c1 -456 0 -831 -2 -833z m-1551 425 c290
-145 483 -248 481 -255 -5 -12 -953 -1422 -967 -1437 -5 -6 -9 425 -9 962 0
535 2 972 5 972 3 0 223 -109 490 -242z m3633 -1249 l-3 -483 -316 484 -316
485 316 472 316 472 3 -474 c1 -260 1 -691 0 -956z m-2128 491 c0 -6 -1951
-982 -1955 -978 -2 2 126 194 284 428 158 234 380 563 494 732 l208 308 484
-243 c267 -133 485 -244 485 -247z m-357 364 l407 -88 0 -118 c0 -65 -3 -118
-7 -117 -5 0 -195 95 -423 210 -228 115 -408 208 -400 206 8 -2 198 -44 423
-93z m1099 -240 c343 -74 635 -138 649 -142 27 -7 26 -8 -126 -235 -84 -126
-155 -230 -158 -233 -3 -3 -230 108 -506 245 l-501 251 0 125 c0 75 4 125 10
125 5 0 290 -61 632 -136z m-692 -1170 l0 -1005 -1000 503 c-550 277 -1000
505 -1000 508 0 5 1980 998 1993 999 4 1 7 -452 7 -1005z m546 753 l482 -242
-489 -729 -489 -729 0 971 c0 535 3 972 8 971 4 0 224 -109 488 -242z m1161
-207 c159 -245 293 -451 297 -458 6 -9 -885 427 -901 442 -2 1 68 107 154 234
86 127 158 231 159 229 1 -1 132 -202 291 -447z m-152 -297 c261 -131 475
-240 475 -243 0 -7 -1920 -973 -1925 -969 -3 5 964 1449 970 1449 3 0 219
-107 480 -237z"/>
</g>
</svg>
